<?xml version="1.0" standalone="no"?>
<!DOCTYPE svg PUBLIC "-//W3C//DTD SVG 1.1//EN" "http://www.w3.org/Graphics/SVG/1.1/DTD/svg11.dtd">
<!--Generator: Xara Designer (www.xara.com), SVG filter version: 6.7.0.0-->
<svg fill="none" fill-rule="evenodd" stroke="black" stroke-width="0.501" stroke-linejoin="bevel" stroke-miterlimit="10" font-family="Times New Roman" font-size="16" style="font-variant-ligatures:none" xmlns:xlink="http://www.w3.org/1999/xlink" xmlns="http://www.w3.org/2000/svg" version="1.1" overflow="visible" width="90.226pt" height="90.224pt" viewBox="232.177 -735.332 90.226 90.224">
 <defs>
	</defs>
 <g id="Layer 1" transform="scale(1 -1)">
  <rect x="-45.112" y="-45.112" width="90.225" height="90.225" rx="42.0193175206421" ry="42.0193175206421" transform="translate(277.291 690.22) rotate(90)" stroke="none" fill="#ffffff" stroke-linejoin="round" stroke-linecap="round" stroke-width="0.398"/>
  <g id="Group" stroke-linejoin="miter" stroke="none">
   <path d="M 242.08,703.5 L 242.08,707.68 L 311.279,707.896 L 311.279,703.716 L 242.08,703.5 Z" fill="#b5932c" marker-start="none" marker-end="none"/>
   <g id="Group_1" fill="#b5932c">
    <path d="M 304.146,671.22 L 304.146,679.404 C 304.146,680.154 304.505,680.803 305.024,681.105 C 304.684,681.369 304.458,681.838 304.458,682.368 L 304.458,682.78 C 304.458,683.319 304.689,683.789 305.037,684.054 C 304.689,684.319 304.458,684.79 304.458,685.329 L 304.458,692.925 C 304.458,693.468 304.695,693.944 305.047,694.205 C 304.695,694.468 304.458,694.945 304.458,695.487 L 304.458,695.9 C 304.458,696.279 304.573,696.626 304.765,696.89 C 304.389,697.233 304.146,697.781 304.146,698.399 L 304.146,706.385 L 307.215,706.385 L 307.215,698.399 C 307.215,697.781 306.973,697.233 306.597,696.89 C 306.787,696.626 306.903,696.279 306.903,695.9 L 306.903,695.487 C 306.903,694.945 306.667,694.468 306.313,694.205 C 306.667,693.944 306.903,693.468 306.903,692.925 L 306.903,685.329 C 306.903,684.79 306.671,684.319 306.324,684.054 C 306.671,683.789 306.903,683.319 306.903,682.78 L 306.903,682.368 C 306.903,681.838 306.677,681.37 306.336,681.105 C 306.856,680.803 307.215,680.154 307.215,679.404 L 307.215,671.22 L 304.146,671.22 Z" marker-start="none" marker-end="none"/>
    <path d="M 296.027,671.22 L 299.095,671.22 L 299.095,679.403 C 299.095,680.153 298.737,680.802 298.217,681.104 C 298.557,681.37 298.783,681.838 298.783,682.368 L 298.783,682.779 C 298.783,683.319 298.552,683.789 298.204,684.054 C 298.552,684.319 298.783,684.789 298.783,685.328 L 298.783,692.924 C 298.783,693.467 298.547,693.944 298.194,694.205 C 298.547,694.468 298.783,694.944 298.783,695.487 L 298.783,695.899 C 298.783,696.278 298.667,696.626 298.477,696.889 C 298.853,697.232 299.095,697.781 299.095,698.398 L 299.095,706.384 L 296.027,706.384 L 296.027,698.398 C 296.027,697.781 296.27,697.232 296.645,696.889 C 296.454,696.626 296.339,696.278 296.339,695.899 L 296.339,695.487 C 296.339,694.944 296.575,694.468 296.928,694.205 C 296.575,693.944 296.339,693.467 296.339,692.924 L 296.339,685.328 C 296.339,684.789 296.57,684.319 296.918,684.054 C 296.57,683.789 296.339,683.319 296.339,682.779 L 296.339,682.368 C 296.339,681.838 296.565,681.369 296.905,681.104 C 296.386,680.802 296.027,680.153 296.027,679.403 L 296.027,671.22 Z" marker-start="none" marker-end="none"/>
    <path d="M 287.908,671.22 L 290.976,671.22 L 290.976,679.403 C 290.976,680.153 290.618,680.802 290.098,681.104 C 290.438,681.37 290.664,681.838 290.664,682.368 L 290.664,682.779 C 290.664,683.319 290.433,683.789 290.085,684.054 C 290.433,684.319 290.664,684.789 290.664,685.328 L 290.664,692.924 C 290.664,693.467 290.428,693.944 290.075,694.205 C 290.428,694.468 290.664,694.944 290.664,695.487 L 290.664,695.899 C 290.664,696.278 290.548,696.626 290.358,696.889 C 290.734,697.232 290.976,697.781 290.976,698.398 L 290.976,706.384 L 287.908,706.384 L 287.908,698.398 C 287.908,697.781 288.151,697.232 288.526,696.889 C 288.335,696.626 288.22,696.278 288.22,695.899 L 288.22,695.487 C 288.22,694.944 288.456,694.468 288.809,694.205 C 288.456,693.944 288.22,693.467 288.22,692.924 L 288.22,685.328 C 288.22,684.789 288.451,684.319 288.799,684.054 C 288.451,683.789 288.22,683.319 288.22,682.779 L 288.22,682.368 C 288.22,681.838 288.446,681.369 288.786,681.104 C 288.267,680.802 287.908,680.153 287.908,679.403 L 287.908,671.22 Z" marker-start="none" marker-end="none"/>
    <path d="M 279.789,671.22 L 282.857,671.22 L 282.857,679.403 C 282.857,680.153 282.499,680.802 281.979,681.104 C 282.319,681.37 282.545,681.838 282.545,682.368 L 282.545,682.779 C 282.545,683.319 282.314,683.789 281.966,684.054 C 282.314,684.319 282.545,684.789 282.545,685.328 L 282.545,692.924 C 282.545,693.467 282.309,693.944 281.956,694.205 C 282.309,694.468 282.545,694.944 282.545,695.487 L 282.545,695.899 C 282.545,696.278 282.429,696.626 282.239,696.889 C 282.615,697.232 282.857,697.781 282.857,698.398 L 282.857,706.384 L 279.789,706.384 L 279.789,698.398 C 279.789,697.781 280.032,697.232 280.407,696.889 C 280.216,696.626 280.101,696.278 280.101,695.899 L 280.101,695.487 C 280.101,694.944 280.337,694.468 280.69,694.205 C 280.337,693.944 280.101,693.467 280.101,692.924 L 280.101,685.328 C 280.101,684.789 280.332,684.319 280.68,684.054 C 280.332,683.789 280.101,683.319 280.101,682.779 L 280.101,682.368 C 280.101,681.838 280.327,681.369 280.667,681.104 C 280.148,680.802 279.789,680.153 279.789,679.403 L 279.789,671.22 Z" marker-start="none" marker-end="none"/>
    <path d="M 271.67,671.22 L 274.738,671.22 L 274.738,679.403 C 274.738,680.153 274.38,680.801 273.86,681.104 C 274.2,681.37 274.426,681.838 274.426,682.368 L 274.426,682.779 C 274.426,683.319 274.195,683.789 273.847,684.054 C 274.195,684.319 274.426,684.789 274.426,685.328 L 274.426,692.924 C 274.426,693.466 274.19,693.944 273.837,694.205 C 274.19,694.468 274.426,694.943 274.426,695.487 L 274.426,695.899 C 274.426,696.278 274.31,696.626 274.12,696.889 C 274.496,697.232 274.738,697.781 274.738,698.398 L 274.738,706.384 L 271.67,706.384 L 271.67,698.398 C 271.67,697.781 271.913,697.232 272.288,696.889 C 272.097,696.626 271.982,696.278 271.982,695.899 L 271.982,695.487 C 271.982,694.943 272.218,694.468 272.571,694.205 C 272.218,693.944 271.982,693.466 271.982,692.924 L 271.982,685.328 C 271.982,684.789 272.213,684.319 272.561,684.054 C 272.213,683.789 271.982,683.319 271.982,682.779 L 271.982,682.368 C 271.982,681.838 272.208,681.369 272.548,681.104 C 272.03,680.801 271.67,680.153 271.67,679.403 L 271.67,671.22 Z" marker-start="none" marker-end="none"/>
    <path d="M 263.551,671.22 L 266.619,671.22 L 266.619,679.403 C 266.619,680.153 266.261,680.801 265.741,681.104 C 266.081,681.37 266.307,681.838 266.307,682.368 L 266.307,682.779 C 266.307,683.319 266.076,683.789 265.728,684.054 C 266.076,684.319 266.307,684.789 266.307,685.328 L 266.307,692.924 C 266.307,693.466 266.071,693.944 265.718,694.205 C 266.071,694.468 266.307,694.943 266.307,695.487 L 266.307,695.899 C 266.307,696.278 266.191,696.626 266.001,696.889 C 266.377,697.232 266.619,697.781 266.619,698.398 L 266.619,706.384 L 263.551,706.384 L 263.551,698.398 C 263.551,697.781 263.794,697.232 264.169,696.889 C 263.978,696.626 263.863,696.278 263.863,695.899 L 263.863,695.487 C 263.863,694.943 264.099,694.468 264.452,694.205 C 264.099,693.944 263.863,693.466 263.863,692.924 L 263.863,685.328 C 263.863,684.789 264.094,684.319 264.442,684.054 C 264.094,683.789 263.863,683.319 263.863,682.779 L 263.863,682.368 C 263.863,681.838 264.089,681.369 264.429,681.104 C 263.911,680.801 263.551,680.153 263.551,679.403 L 263.551,671.22 Z" marker-start="none" marker-end="none"/>
    <path d="M 255.432,671.22 L 258.5,671.22 L 258.5,679.403 C 258.5,680.153 258.142,680.801 257.622,681.104 C 257.962,681.37 258.188,681.838 258.188,682.368 L 258.188,682.779 C 258.188,683.319 257.957,683.789 257.609,684.054 C 257.957,684.319 258.188,684.789 258.188,685.328 L 258.188,692.924 C 258.188,693.466 257.952,693.944 257.599,694.205 C 257.952,694.468 258.188,694.943 258.188,695.487 L 258.188,695.899 C 258.188,696.278 258.072,696.626 257.882,696.889 C 258.258,697.232 258.5,697.781 258.5,698.398 L 258.5,706.384 L 255.432,706.384 L 255.432,698.398 C 255.432,697.781 255.675,697.232 256.05,696.889 C 255.859,696.626 255.744,696.278 255.744,695.899 L 255.744,695.487 C 255.744,694.943 255.98,694.468 256.333,694.205 C 255.98,693.944 255.744,693.466 255.744,692.924 L 255.744,685.328 C 255.744,684.789 255.975,684.319 256.323,684.054 C 255.975,683.789 255.744,683.319 255.744,682.779 L 255.744,682.368 C 255.744,681.838 255.97,681.369 256.31,681.104 C 255.792,680.801 255.432,680.153 255.432,679.403 L 255.432,671.22 Z" marker-start="none" marker-end="none"/>
    <path d="M 247.313,671.22 L 247.313,679.403 C 247.313,680.153 247.674,680.801 248.192,681.104 C 247.851,681.369 247.626,681.838 247.626,682.368 L 247.626,682.779 C 247.626,683.319 247.857,683.789 248.204,684.054 C 247.857,684.319 247.626,684.789 247.626,685.328 L 247.626,692.924 C 247.626,693.466 247.861,693.944 248.214,694.205 C 247.861,694.469 247.626,694.943 247.626,695.487 L 247.626,695.899 C 247.626,696.278 247.741,696.626 247.931,696.889 C 247.556,697.232 247.313,697.781 247.313,698.398 L 247.313,706.384 L 250.381,706.384 L 250.381,698.398 C 250.381,697.781 250.139,697.232 249.763,696.889 C 249.953,696.626 250.069,696.278 250.069,695.899 L 250.069,695.487 C 250.069,694.943 249.833,694.469 249.481,694.205 C 249.833,693.944 250.069,693.466 250.069,692.924 L 250.069,685.328 C 250.069,684.789 249.838,684.319 249.49,684.054 C 249.838,683.789 250.069,683.319 250.069,682.779 L 250.069,682.368 C 250.069,681.838 249.843,681.37 249.504,681.104 C 250.023,680.801 250.381,680.153 250.381,679.403 L 250.381,671.22 L 247.313,671.22 Z" marker-start="none" marker-end="none"/>
   </g>
   <rect x="-4.082" y="-39.381" width="8.164" height="78.763" transform="translate(277.264 669.866) rotate(90)" fill="#98804b"/>
   <path d="M 237.928,673.947 L 237.927,711.842 C 237.336,711.845 236.857,712.327 236.857,712.92 L 236.857,713.577 C 236.857,714.172 237.341,714.656 237.936,714.656 L 243.712,714.656 C 244.308,714.656 244.791,714.172 244.791,713.577 L 244.791,712.92 C 244.791,712.325 244.308,711.841 243.712,711.841 L 243.712,673.947 L 237.928,673.947 Z" fill="#98804b" marker-start="none" marker-end="none"/>
   <path d="M 310.861,673.948 L 310.86,711.843 C 310.269,711.846 309.79,712.328 309.79,712.921 L 309.79,713.578 C 309.79,714.173 310.274,714.657 310.869,714.657 L 316.645,714.657 C 317.24,714.657 317.724,714.173 317.724,713.578 L 317.724,712.921 C 317.724,712.326 317.24,711.842 316.645,711.842 L 316.645,673.948 L 310.861,673.948 Z" fill="#98804b" marker-start="none" marker-end="none"/>
  </g>
 </g>
</svg>
