<?xml version="1.0" standalone="no"?>
<!DOCTYPE svg PUBLIC "-//W3C//DTD SVG 1.1//EN" "http://www.w3.org/Graphics/SVG/1.1/DTD/svg11.dtd">
<!--Generator: Xara Designer (www.xara.com), SVG filter version: 6.7.0.0-->
<svg fill="none" fill-rule="evenodd" stroke="black" stroke-width="0.501" stroke-linejoin="bevel" stroke-miterlimit="10" font-family="Times New Roman" font-size="16" style="font-variant-ligatures:none" xmlns:xlink="http://www.w3.org/1999/xlink" xmlns="http://www.w3.org/2000/svg" version="1.1" overflow="visible" width="90.226pt" height="90.224pt" viewBox="111.432 -735.332 90.226 90.224">
 <defs>
	</defs>
 <g id="Layer 1" transform="scale(1 -1)">
  <rect x="-45.112" y="-45.113" width="90.225" height="90.226" rx="40.5036596342174" ry="40.5036596342174" transform="translate(156.545 690.22) rotate(90)" stroke="none" fill="#ffffff" stroke-linejoin="round" stroke-linecap="round" stroke-width="0.398"/>
  <g id="Group" stroke-linejoin="miter" stroke="none">
   <g id="Group_1" fill="#b5932c">
    <path d="M 181.224,686.434 L 181.224,694.618 C 181.224,695.368 181.584,696.017 182.102,696.32 C 181.762,696.583 181.536,697.053 181.536,697.583 L 181.536,697.995 C 181.536,698.533 181.767,699.004 182.115,699.269 C 181.767,699.533 181.536,700.005 181.536,700.543 L 181.536,708.14 C 181.536,708.682 181.773,709.158 182.126,709.42 C 181.773,709.682 181.536,710.159 181.536,710.701 L 181.536,711.114 C 181.536,711.494 181.651,711.84 181.843,712.105 C 181.467,712.448 181.224,712.995 181.224,713.613 L 181.224,721.599 L 184.293,721.599 L 184.293,713.613 C 184.293,712.995 184.051,712.448 183.675,712.105 C 183.865,711.84 183.981,711.494 183.981,711.114 L 183.981,710.701 C 183.981,710.159 183.745,709.682 183.392,709.42 C 183.745,709.158 183.981,708.682 183.981,708.14 L 183.981,700.543 C 183.981,700.005 183.75,699.533 183.402,699.269 C 183.75,699.004 183.981,698.533 183.981,697.995 L 183.981,697.583 C 183.981,697.053 183.755,696.585 183.415,696.32 C 183.934,696.017 184.293,695.368 184.293,694.618 L 184.293,686.434 L 181.224,686.434 Z" marker-start="none" marker-end="none"/>
    <path d="M 173.734,681.611 L 176.803,681.611 L 176.803,689.795 C 176.803,690.545 176.444,691.194 175.925,691.497 C 176.265,691.762 176.491,692.23 176.491,692.76 L 176.491,693.172 C 176.491,693.71 176.26,694.181 175.912,694.446 C 176.26,694.71 176.491,695.182 176.491,695.72 L 176.491,703.317 C 176.491,703.859 176.255,704.335 175.902,704.597 C 176.255,704.859 176.491,705.336 176.491,705.878 L 176.491,706.291 C 176.491,706.671 176.375,707.017 176.185,707.282 C 176.561,707.625 176.803,708.172 176.803,708.79 L 176.803,716.776 L 173.734,716.776 L 173.734,708.79 C 173.734,708.172 173.977,707.625 174.353,707.282 C 174.161,707.017 174.046,706.671 174.046,706.291 L 174.046,705.878 C 174.046,705.336 174.283,704.859 174.636,704.597 C 174.283,704.335 174.046,703.859 174.046,703.317 L 174.046,695.72 C 174.046,695.182 174.277,694.71 174.625,694.446 C 174.277,694.181 174.046,693.71 174.046,693.172 L 174.046,692.76 C 174.046,692.23 174.272,691.76 174.612,691.497 C 174.094,691.194 173.734,690.545 173.734,689.795 L 173.734,681.611 Z" marker-start="none" marker-end="none"/>
    <path d="M 166.245,676.789 L 169.313,676.789 L 169.313,684.973 C 169.313,685.723 168.955,686.371 168.436,686.674 C 168.775,686.939 169.001,687.408 169.001,687.938 L 169.001,688.349 C 169.001,688.888 168.77,689.359 168.422,689.624 C 168.77,689.888 169.001,690.359 169.001,690.898 L 169.001,698.494 C 169.001,699.036 168.765,699.513 168.413,699.775 C 168.765,700.037 169.001,700.513 169.001,701.056 L 169.001,701.469 C 169.001,701.848 168.885,702.195 168.695,702.459 C 169.071,702.802 169.313,703.35 169.313,703.968 L 169.313,711.954 L 166.245,711.954 L 166.245,703.968 C 166.245,703.35 166.488,702.802 166.863,702.459 C 166.672,702.195 166.557,701.848 166.557,701.469 L 166.557,701.056 C 166.557,700.513 166.793,700.037 167.146,699.775 C 166.793,699.513 166.557,699.036 166.557,698.494 L 166.557,690.898 C 166.557,690.359 166.788,689.888 167.136,689.624 C 166.788,689.359 166.557,688.888 166.557,688.349 L 166.557,687.938 C 166.557,687.408 166.783,686.938 167.123,686.674 C 166.605,686.371 166.245,685.723 166.245,684.973 L 166.245,676.789 Z" marker-start="none" marker-end="none"/>
    <path d="M 158.755,671.967 L 161.824,671.967 L 161.824,680.15 C 161.824,680.9 161.465,681.549 160.946,681.852 C 161.286,682.117 161.512,682.585 161.512,683.115 L 161.512,683.527 C 161.512,684.066 161.281,684.536 160.933,684.801 C 161.281,685.065 161.512,685.537 161.512,686.075 L 161.512,693.672 C 161.512,694.214 161.276,694.691 160.923,694.952 C 161.276,695.215 161.512,695.691 161.512,696.233 L 161.512,696.646 C 161.512,697.025 161.396,697.373 161.206,697.637 C 161.582,697.98 161.824,698.528 161.824,699.145 L 161.824,707.131 L 158.755,707.131 L 158.755,699.145 C 158.755,698.528 158.998,697.98 159.374,697.637 C 159.183,697.373 159.068,697.025 159.068,696.646 L 159.068,696.233 C 159.068,695.691 159.304,695.215 159.657,694.952 C 159.304,694.691 159.068,694.214 159.068,693.672 L 159.068,686.075 C 159.068,685.537 159.299,685.065 159.646,684.801 C 159.299,684.536 159.068,684.066 159.068,683.527 L 159.068,683.115 C 159.068,682.585 159.293,682.116 159.634,681.852 C 159.115,681.549 158.755,680.9 158.755,680.15 L 158.755,671.967 Z" marker-start="none" marker-end="none"/>
    <path d="M 151.266,667.144 L 154.334,667.144 L 154.334,675.328 C 154.334,676.078 153.976,676.726 153.457,677.029 C 153.796,677.294 154.022,677.763 154.022,678.293 L 154.022,678.704 C 154.022,679.243 153.791,679.714 153.443,679.979 C 153.791,680.243 154.022,680.714 154.022,681.253 L 154.022,688.849 C 154.022,689.391 153.786,689.868 153.434,690.13 C 153.786,690.393 154.022,690.868 154.022,691.411 L 154.022,691.824 C 154.022,692.203 153.906,692.55 153.716,692.814 C 154.092,693.157 154.334,693.705 154.334,694.323 L 154.334,702.309 L 151.266,702.309 L 151.266,694.323 C 151.266,693.705 151.509,693.157 151.884,692.814 C 151.693,692.55 151.578,692.203 151.578,691.824 L 151.578,691.411 C 151.578,690.868 151.814,690.393 152.167,690.13 C 151.814,689.868 151.578,689.391 151.578,688.849 L 151.578,681.253 C 151.578,680.714 151.809,680.243 152.157,679.979 C 151.809,679.714 151.578,679.243 151.578,678.704 L 151.578,678.293 C 151.578,677.763 151.804,677.293 152.144,677.029 C 151.626,676.726 151.266,676.078 151.266,675.328 L 151.266,667.144 Z" marker-start="none" marker-end="none"/>
    <path d="M 143.776,662.322 L 146.845,662.322 L 146.845,670.505 C 146.845,671.255 146.486,671.904 145.967,672.207 C 146.307,672.472 146.533,672.94 146.533,673.47 L 146.533,673.882 C 146.533,674.421 146.302,674.891 145.954,675.156 C 146.302,675.42 146.533,675.892 146.533,676.43 L 146.533,684.027 C 146.533,684.569 146.297,685.046 145.944,685.307 C 146.297,685.571 146.533,686.046 146.533,686.588 L 146.533,687.001 C 146.533,687.38 146.417,687.728 146.227,687.992 C 146.603,688.335 146.845,688.883 146.845,689.5 L 146.845,697.486 L 143.776,697.486 L 143.776,689.5 C 143.776,688.883 144.019,688.335 144.395,687.992 C 144.204,687.728 144.089,687.38 144.089,687.001 L 144.089,686.588 C 144.089,686.046 144.325,685.571 144.678,685.307 C 144.325,685.046 144.089,684.569 144.089,684.027 L 144.089,676.43 C 144.089,675.892 144.32,675.42 144.667,675.156 C 144.32,674.891 144.089,674.421 144.089,673.882 L 144.089,673.47 C 144.089,672.94 144.314,672.471 144.655,672.207 C 144.136,671.904 143.776,671.255 143.776,670.505 L 143.776,662.322 Z" marker-start="none" marker-end="none"/>
    <path d="M 136.287,657.5 L 139.355,657.5 L 139.355,665.683 C 139.355,666.433 138.997,667.081 138.478,667.384 C 138.817,667.649 139.043,668.118 139.043,668.648 L 139.043,669.059 C 139.043,669.599 138.812,670.069 138.464,670.334 C 138.812,670.598 139.043,671.069 139.043,671.608 L 139.043,679.204 C 139.043,679.746 138.807,680.224 138.455,680.485 C 138.807,680.749 139.043,681.223 139.043,681.766 L 139.043,682.179 C 139.043,682.557 138.927,682.906 138.737,683.169 C 139.113,683.512 139.355,684.061 139.355,684.678 L 139.355,692.664 L 136.287,692.664 L 136.287,684.678 C 136.287,684.061 136.53,683.512 136.905,683.169 C 136.715,682.906 136.6,682.557 136.6,682.179 L 136.6,681.766 C 136.6,681.223 136.835,680.749 137.188,680.485 C 136.835,680.224 136.6,679.746 136.6,679.204 L 136.6,671.608 C 136.6,671.069 136.831,670.598 137.178,670.334 C 136.831,670.069 136.6,669.599 136.6,669.059 L 136.6,668.648 C 136.6,668.118 136.825,667.649 137.166,667.384 C 136.647,667.081 136.287,666.433 136.287,665.683 L 136.287,657.5 Z" marker-start="none" marker-end="none"/>
    <path d="M 128.798,652.678 L 128.798,660.861 C 128.798,661.611 129.158,662.259 129.677,662.562 C 129.336,662.827 129.111,663.296 129.111,663.826 L 129.111,664.237 C 129.111,664.777 129.342,665.247 129.689,665.512 C 129.342,665.776 129.111,666.247 129.111,666.786 L 129.111,674.382 C 129.111,674.924 129.346,675.402 129.699,675.663 C 129.346,675.927 129.111,676.401 129.111,676.944 L 129.111,677.357 C 129.111,677.735 129.226,678.084 129.416,678.347 C 129.041,678.69 128.798,679.239 128.798,679.856 L 128.798,687.842 L 131.866,687.842 L 131.866,679.856 C 131.866,679.239 131.624,678.69 131.248,678.347 C 131.438,678.084 131.554,677.735 131.554,677.357 L 131.554,676.944 C 131.554,676.401 131.318,675.927 130.966,675.663 C 131.318,675.402 131.554,674.924 131.554,674.382 L 131.554,666.786 C 131.554,666.247 131.323,665.776 130.975,665.512 C 131.323,665.247 131.554,664.777 131.554,664.237 L 131.554,663.826 C 131.554,663.296 131.328,662.827 130.989,662.562 C 131.508,662.259 131.866,661.611 131.866,660.861 L 131.866,652.678 L 128.798,652.678 Z" marker-start="none" marker-end="none"/>
   </g>
   <path d="M 122.793,680.341 L 122.793,684.521 L 187.273,727.73 L 187.273,723.55 L 122.793,680.341 Z" fill="#b5932c" marker-start="none" marker-end="none"/>
   <path d="M 139.147,649.242 L 125.683,649.26 L 119.902,649.26 L 119.902,687.138 L 119.906,687.138 C 119.311,687.138 118.827,687.622 118.827,688.217 L 118.827,688.874 C 118.827,689.469 119.311,689.953 119.906,689.953 L 125.682,689.953 C 126.277,689.953 126.761,689.469 126.761,688.874 L 126.761,688.217 C 126.761,687.622 126.277,687.138 125.682,687.138 L 125.683,687.138 L 125.683,658.117 L 140.927,658.117 L 140.927,667.436 L 156.014,667.436 L 156.014,678.627 L 171.028,678.627 L 171.028,688.64 L 187.273,688.64 L 187.273,727.73 L 187.278,727.73 C 186.683,727.73 186.199,728.214 186.199,728.809 L 186.199,729.466 C 186.199,730.062 186.683,730.546 187.278,730.546 L 193.053,730.546 C 193.649,730.546 194.132,730.062 194.132,729.466 L 194.132,728.809 C 194.132,728.214 193.649,727.73 193.053,727.73 L 193.053,682.775 L 139.147,649.242 Z" fill="#98804b" marker-start="none" marker-end="none"/>
  </g>
 </g>
</svg>
